<svg width="23" height="19" viewBox="0 0 23 19" fill="none" xmlns="http://www.w3.org/2000/svg">
<circle cx="9" cy="8" r="8" fill="#195EF7"/>
<path d="M6.96046 10.9199C6.67783 10.7345 6.49221 10.5039 6.40361 10.2282C6.32226 9.95714 6.36476 9.69481 6.53113 9.44117C6.67848 9.21651 6.86966 9.06725 7.10468 8.99337C7.35169 8.91701 7.55129 8.92873 7.70348 9.02855C7.7687 9.07133 7.80755 9.12272 7.82001 9.18272C7.83973 9.24748 7.84631 9.32435 7.83977 9.41333C7.81897 9.52406 7.83541 9.63331 7.8891 9.74108C7.94754 9.8416 8.02387 9.92276 8.11808 9.98455C8.39346 10.1652 8.79106 10.1358 9.31089 9.89629C9.83071 9.65683 10.4732 9.26982 11.2384 8.73525C11.4939 7.85597 11.6288 7.10498 11.6434 6.48229C11.6627 5.85236 11.4695 5.4043 11.0637 5.13812C11.0057 5.1001 10.9393 5.06694 10.8646 5.03865C10.7946 5.00312 10.7186 4.96884 10.6367 4.9358C10.5499 4.91001 10.4987 4.81424 10.4831 4.6485C10.4747 4.48751 10.5156 4.33817 10.6059 4.20048C10.7438 3.99032 10.9521 3.87818 11.2308 3.86408C11.5168 3.85472 11.8156 3.95224 12.1272 4.15663C12.6345 4.48936 12.9181 4.96558 12.978 5.58531C13.0379 6.20503 12.8905 7.06188 12.5357 8.15584C13.0499 7.79864 13.5657 7.50993 14.0833 7.28971C14.6128 7.067 15.1204 6.94902 15.6058 6.93577C16.0913 6.92252 16.5261 7.04186 16.9101 7.29378C17.3667 7.59323 17.4714 7.93138 17.2242 8.30822C17.0911 8.51113 16.9143 8.65428 16.6938 8.73766C16.4805 8.82579 16.3087 8.82708 16.1782 8.74152C16.113 8.69874 16.0463 8.61872 15.9781 8.50144C15.8735 8.32915 15.7559 8.20023 15.6255 8.11467C15.3138 7.91028 14.8895 7.90144 14.3525 8.08815C13.7962 8.2726 13.1032 8.65759 12.2734 9.24311C12.1312 9.82348 12.0318 10.3543 11.9753 10.8354C11.9188 11.3166 11.9303 11.7336 12.0099 12.0863C12.0942 12.4318 12.2741 12.6949 12.5494 12.8755C12.6292 12.9278 12.7028 12.9657 12.7702 12.9893C12.845 13.0176 12.9065 13.0423 12.9547 13.0636C13.0077 13.0776 13.0487 13.0941 13.0777 13.1132C13.2371 13.2177 13.2431 13.3823 13.0958 13.607C13.0007 13.7519 12.8622 13.8684 12.6801 13.9563C12.5101 14.0417 12.3109 14.0768 12.0824 14.0617C11.8347 14.0443 11.5949 13.9596 11.363 13.8075C10.9861 13.5603 10.7374 13.2521 10.6169 12.8828C10.5083 12.511 10.4872 12.0929 10.5534 11.6285C10.6171 11.1521 10.7569 10.5597 10.9728 9.85139C10.1073 10.4756 9.346 10.8936 8.68895 11.1052C8.04391 11.3144 7.46774 11.2526 6.96046 10.9199Z" fill="white"/>
<path d="M9.866 2.523C9.658 2.705 9.42833 2.87833 9.177 3.043C8.93433 3.20767 8.67867 3.35067 8.41 3.472C8.14133 3.59333 7.864 3.693 7.578 3.771C7.292 3.84033 7.006 3.875 6.72 3.875C6.62467 3.875 6.53367 3.875 6.447 3.875C6.36033 3.875 6.27367 3.87067 6.187 3.862C6.161 4.122 6.148 4.38633 6.148 4.655C6.148 5.39167 6.15233 6.13267 6.161 6.878C6.16967 7.62333 6.174 8.41633 6.174 9.257C6.174 9.70767 6.252 10.1453 6.408 10.57C6.57267 10.986 6.80667 11.2893 7.11 11.48C6.746 11.6533 6.43833 11.8353 6.187 12.026C5.94433 12.2253 5.72767 12.507 5.537 12.871C5.38967 12.5157 5.16 12.2297 4.848 12.013C4.536 11.805 4.185 11.6273 3.795 11.48C3.96833 11.2287 4.09833 10.9037 4.185 10.505C4.27167 10.0977 4.315 9.70333 4.315 9.322C4.315 8.94933 4.315 8.62 4.315 8.334C4.315 8.03933 4.315 7.76633 4.315 7.515C4.32367 7.26367 4.328 7.021 4.328 6.787C4.33667 6.553 4.341 6.30167 4.341 6.033C4.34967 5.76433 4.354 5.46967 4.354 5.149C4.354 4.82833 4.354 4.45133 4.354 4.018C4.354 3.94867 4.354 3.88367 4.354 3.823C4.354 3.76233 4.34533 3.69733 4.328 3.628C3.756 3.524 3.21 3.42 2.69 3.316C2.17867 3.20333 1.71067 3.147 1.286 3.147C1.09533 3.147 0.891667 3.16867 0.675 3.212L0.662 3.173C1.13 3.03433 1.51133 2.86533 1.806 2.666C2.10933 2.46667 2.41267 2.22833 2.716 1.951C3.16667 2.081 3.548 2.185 3.86 2.263C4.18067 2.341 4.47533 2.40167 4.744 2.445C5.02133 2.48833 5.29 2.51867 5.55 2.536C5.81867 2.54467 6.122 2.549 6.46 2.549C6.37333 2.40167 6.31267 2.27167 6.278 2.159C6.24333 2.03767 6.22167 1.912 6.213 1.782C6.499 1.964 6.76333 2.107 7.006 2.211C7.25733 2.30633 7.49567 2.38 7.721 2.432C7.94633 2.47533 8.17167 2.50133 8.397 2.51C8.62233 2.51867 8.85633 2.523 9.099 2.523C9.23767 2.523 9.36333 2.51867 9.476 2.51C9.59733 2.50133 9.71867 2.48833 9.84 2.471L9.866 2.523Z" fill="#00BE7E"/>
</svg>
